# xmcd
#
# Track frame offsets:
#   150
#   14737
#   30887
#   44027
#   61372
#   74454
#   87836
#   103853
#   118105
#   132332
#   147875
#   161134
#   176655
#   193668
#
# Disc length: 2794 seconds
#
# Revision: 0
# Processed by: cddbd v1.5.2PL0 Copyright (c) Steve Scherf et al.
# Submitted via: uFREEDB ActiveX Control 1.5
#
DISCID=cf0ae80e
DTITLE=Tinoco e Mazinho Quevedo - Coração Caipira Ao Vivo
DYEAR=2007
DGENRE=Jeca
TTITLE0=Baile na roça
TTITLE1=Brasil Caboclo
TTITLE2=Curitibana
TTITLE3=Canoeiro
TTITLE4=Pé de Ipê
TTITLE5=Beijinho Doce
TTITLE6=Chico Mineiro
TTITLE7=Gondoleiro do Amor
TTITLE8=O Menino da Porqueira
TTITLE9=Saudade Vai
TTITLE10=Tristeza do Jeca
TTITLE11=Moreninha Linda (tesuda)
TTITLE12=Loira Loirinha Lourão
TTITLE13=essa nao tem aqui
EXTD=
EXTT0=
EXTT1=
EXTT2=
EXTT3=
EXTT4=
EXTT5=
EXTT6=
EXTT7=
EXTT8=
EXTT9=
EXTT10=
EXTT11=
EXTT12=
EXTT13=
PLAYORDER=
